<?xml version="1.0" encoding="utf-8"?>
<!-- Generator: Adobe Illustrator 23.1.0, SVG Export Plug-In . SVG Version: 6.00 Build 0)  -->
<svg version="1.1" id="Capa_1" xmlns="http://www.w3.org/2000/svg" xmlns:xlink="http://www.w3.org/1999/xlink" x="0px" y="0px"
	 viewBox="0 0 792 264" style="enable-background:new 0 0 792 264;" xml:space="preserve">
<style type="text/css">
	.st0{fill:#004169;}
	.st1{fill:#65A428;}
	.st2{fill:#F6F6F6;}
</style>
<path class="st0" d="M603.72,77.9c-49.61,0-94.31,20.97-125.74,54.53C437.01,58.25,358.03,8.01,267.3,8.01
	C134.45,8.01,26.76,115.7,26.76,248.55c0,0.54,0.02,1.08,0.02,1.63h14.63c0-0.54-0.02-1.08-0.02-1.63
	c0-124.77,101.14-225.91,225.91-225.91c87.18,0,162.82,49.39,200.48,121.71c1.81,3.47,3.53,6.99,5.16,10.56
	c3.19-4.37,6.6-8.58,10.2-12.61c29.63-33.1,72.67-53.93,120.58-53.93c89.36,0,161.8,72.44,161.8,161.8H776
	C776,155.03,698.87,77.9,603.72,77.9z"/>
<path class="st1" d="M304.23,210.74c11.02-11.47,20.48-24.34,29.49-38.49c13.75-21.59,26.09-44.63,46.75-60.59
	c5.62-4.34,11.73-7.89,18.38-10.4c2.73-1.03,20.02-7.49,22.02-5.5C381.49,56.6,327.22,32.39,267.3,32.39
	c-120.28,0-217.78,97.5-217.78,217.78c0,4.49,141.45,4.83,158.68,3.89c22.13-1.2,44.8-5.42,63.77-17.17
	C284.32,229.25,294.84,220.5,304.23,210.74z"/>
<g>
	<path class="st2" d="M55.12,246.26c0,0,0.71-0.93,2.11-2.62c1.41-1.68,3.44-4.19,6.16-7.24c2.71-3.07,6-6.8,9.91-10.95
		c3.9-4.16,8.38-8.78,13.37-13.72c9.98-9.87,22.02-21,35.54-32.25c3.37-2.82,6.84-5.64,10.39-8.44c3.54-2.82,7.17-5.63,10.87-8.39
		c7.38-5.57,15.07-10.98,22.88-16.22c7.85-5.18,15.82-10.21,23.9-14.8c2.03-1.14,4.02-2.3,6.05-3.4c2.03-1.09,4.04-2.19,6.07-3.23
		c2.02-1.05,4.03-2.1,6.05-3.09c2-1.02,4.03-1.98,6.04-2.91c8.02-3.78,15.97-7.07,23.64-9.82c7.68-2.74,15.09-4.92,22.04-6.53
		c6.94-1.6,13.41-2.64,19.16-3.2c2.87-0.31,5.58-0.44,8.07-0.55c2.51-0.01,4.79-0.1,6.86,0.01c1.03,0.03,2.01,0.07,2.92,0.09
		c0.92,0.06,1.78,0.15,2.57,0.22c1.59,0.14,2.94,0.26,4.03,0.44c2.17,0.32,3.33,0.5,3.33,0.5s-1.17,0.09-3.35,0.25
		c-1.09,0.05-2.43,0.2-4,0.38c-0.78,0.09-1.62,0.19-2.52,0.29c-0.89,0.13-1.84,0.26-2.84,0.41c-2,0.24-4.2,0.72-6.58,1.15
		c-2.37,0.56-4.94,1.03-7.64,1.76c-5.42,1.37-11.45,3.17-17.9,5.49c-6.46,2.3-13.34,5.11-20.48,8.37
		c-7.15,3.25-14.56,6.97-22.12,11.04c-0.94,0.51-1.89,1.02-2.84,1.54c-0.95,0.53-1.9,1.06-2.85,1.59c-1.91,1.04-3.82,2.14-5.74,3.24
		c-3.83,2.21-7.67,4.51-11.55,6.83c-7.71,4.71-15.47,9.64-23.11,14.76c-7.68,5.07-15.24,10.33-22.65,15.57
		c-3.69,2.65-7.34,5.28-10.96,7.88c-3.59,2.64-7.13,5.25-10.62,7.82c-6.95,5.17-13.64,10.23-19.95,15.08
		c-6.31,4.84-12.27,9.46-17.75,13.76c-5.47,4.31-10.49,8.27-14.94,11.77c-4.45,3.53-8.33,6.6-11.52,9.13
		C58.77,243.34,55.12,246.26,55.12,246.26z"/>
</g>
<g>
	<path class="st1" d="M497.55,150.6h6.71l8.39,25.24l8.47-25.24h6.71l6.07,36.19h-6.66l-3.88-22.85l-7.69,22.85h-6.07l-7.62-22.85
		L498,186.79h-6.72L497.55,150.6z"/>
	<path class="st1" d="M565.45,175.35h-21.58c0.31,1.9,1.14,3.42,2.5,4.54c1.35,1.12,3.08,1.68,5.18,1.68c2.51,0,4.67-0.88,6.47-2.63
		l5.66,2.66c-1.41,2-3.1,3.48-5.07,4.44c-1.97,0.96-4.31,1.44-7.01,1.44c-4.2,0-7.62-1.32-10.26-3.97
		c-2.64-2.65-3.96-5.97-3.96-9.95c0-4.08,1.32-7.47,3.95-10.17c2.63-2.7,5.93-4.05,9.9-4.05c4.21,0,7.64,1.35,10.28,4.05
		c2.64,2.7,3.96,6.26,3.96,10.69L565.45,175.35z M558.74,170.06c-0.44-1.49-1.32-2.71-2.63-3.64c-1.31-0.94-2.82-1.4-4.55-1.4
		c-1.87,0-3.52,0.52-4.93,1.57c-0.89,0.66-1.71,1.81-2.46,3.47H558.74z"/>
	<path class="st1" d="M571.7,150.16h6.72v9.87h3.99v5.78h-3.99v20.98h-6.72V165.8h-3.44v-5.78h3.44V150.16z"/>
	<path class="st1" d="M612.81,175.35h-21.58c0.31,1.9,1.14,3.42,2.5,4.54c1.35,1.12,3.08,1.68,5.18,1.68c2.51,0,4.67-0.88,6.47-2.63
		l5.66,2.66c-1.41,2-3.1,3.48-5.07,4.44c-1.97,0.96-4.31,1.44-7.01,1.44c-4.2,0-7.62-1.32-10.26-3.97
		c-2.64-2.65-3.96-5.97-3.96-9.95c0-4.08,1.32-7.47,3.95-10.17c2.63-2.7,5.93-4.05,9.9-4.05c4.21,0,7.64,1.35,10.28,4.05
		c2.64,2.7,3.96,6.26,3.96,10.69L612.81,175.35z M606.09,170.06c-0.44-1.49-1.32-2.71-2.63-3.64c-1.31-0.94-2.82-1.4-4.55-1.4
		c-1.87,0-3.52,0.52-4.93,1.57c-0.89,0.66-1.71,1.81-2.46,3.47H606.09z"/>
	<path class="st1" d="M630.82,159.33c2.53,0,4.9,0.63,7.12,1.89c2.22,1.26,3.96,2.98,5.2,5.14c1.25,2.17,1.87,4.5,1.87,7.01
		c0,2.53-0.63,4.89-1.88,7.08c-1.25,2.2-2.96,3.92-5.13,5.15c-2.16,1.24-4.55,1.86-7.16,1.86c-3.84,0-7.11-1.37-9.83-4.1
		c-2.71-2.73-4.07-6.05-4.07-9.95c0-4.18,1.53-7.67,4.6-10.46C624.23,160.55,627.32,159.33,630.82,159.33z M630.93,165.66
		c-2.09,0-3.82,0.73-5.21,2.18c-1.39,1.45-2.08,3.31-2.08,5.57c0,2.33,0.69,4.21,2.06,5.66c1.37,1.44,3.11,2.17,5.21,2.17
		c2.1,0,3.85-0.73,5.25-2.19c1.4-1.46,2.09-3.34,2.09-5.63c0-2.3-0.69-4.16-2.06-5.6C634.82,166.37,633.06,165.66,630.93,165.66z"/>
	<path class="st1" d="M432.23,216.96l-4.85,4.8c-3.07-3.25-6.65-4.87-10.74-4.87c-3.56,0-6.55,1.18-8.95,3.54
		c-2.41,2.36-3.61,5.23-3.61,8.61c0,3.49,1.25,6.45,3.74,8.88c2.5,2.43,5.57,3.64,9.24,3.64c2.38,0,4.39-0.5,6.02-1.5
		c1.63-1,2.95-2.57,3.95-4.7h-10.48v-6.47h18.21l0.05,1.53c0,3.17-0.82,6.17-2.46,9c-1.64,2.84-3.76,5-6.37,6.5
		c-2.61,1.49-5.67,2.24-9.18,2.24c-3.76,0-7.11-0.82-10.05-2.45c-2.94-1.63-5.27-3.96-6.99-6.97c-1.71-3.02-2.57-6.27-2.57-9.77
		c0-4.79,1.58-8.96,4.75-12.5c3.76-4.21,8.64-6.32,14.66-6.32c3.15,0,6.09,0.58,8.83,1.75
		C427.75,212.88,430.01,214.57,432.23,216.96z"/>
	<path class="st1" d="M438.82,220.48h5.76v3.37c0.62-1.33,1.45-2.34,2.48-3.03c1.03-0.69,2.16-1.03,3.4-1.03
		c0.87,0,1.78,0.23,2.73,0.69l-2.09,5.78c-0.79-0.39-1.44-0.59-1.94-0.59c-1.03,0-1.91,0.64-2.62,1.92
		c-0.71,1.28-1.07,3.79-1.07,7.53l0.02,1.3v10.82h-6.67V220.48z"/>
	<path class="st1" d="M483.32,235.81h-21.58c0.31,1.9,1.14,3.42,2.5,4.54c1.35,1.12,3.08,1.68,5.18,1.68c2.51,0,4.67-0.88,6.47-2.63
		l5.66,2.66c-1.41,2-3.1,3.48-5.07,4.44c-1.97,0.96-4.31,1.44-7.01,1.44c-4.2,0-7.62-1.32-10.26-3.97
		c-2.64-2.65-3.96-5.97-3.96-9.95c0-4.08,1.32-7.47,3.95-10.17c2.63-2.7,5.93-4.05,9.9-4.05c4.21,0,7.64,1.35,10.28,4.05
		c2.64,2.7,3.96,6.26,3.96,10.69L483.32,235.81z M476.61,230.52c-0.44-1.49-1.32-2.71-2.63-3.64c-1.31-0.94-2.82-1.4-4.55-1.4
		c-1.87,0-3.52,0.52-4.93,1.57c-0.89,0.66-1.71,1.81-2.46,3.47H476.61z"/>
	<path class="st1" d="M515.57,235.81H494c0.31,1.9,1.14,3.42,2.5,4.54c1.35,1.12,3.08,1.68,5.18,1.68c2.51,0,4.67-0.88,6.47-2.63
		l5.66,2.66c-1.41,2-3.1,3.48-5.07,4.44c-1.97,0.96-4.31,1.44-7.01,1.44c-4.2,0-7.62-1.32-10.26-3.97
		c-2.64-2.65-3.96-5.97-3.96-9.95c0-4.08,1.32-7.47,3.95-10.17c2.63-2.7,5.93-4.05,9.9-4.05c4.21,0,7.64,1.35,10.28,4.05
		c2.64,2.7,3.96,6.26,3.96,10.69L515.57,235.81z M508.86,230.52c-0.44-1.49-1.32-2.71-2.63-3.64c-1.31-0.94-2.82-1.4-4.55-1.4
		c-1.87,0-3.52,0.52-4.93,1.57c-0.89,0.66-1.71,1.81-2.46,3.47H508.86z"/>
	<path class="st1" d="M521.01,220.48h6.72v2.74c1.52-1.28,2.9-2.18,4.14-2.68c1.24-0.5,2.5-0.75,3.8-0.75c2.65,0,4.9,0.93,6.75,2.78
		c1.56,1.57,2.33,3.9,2.33,6.99v17.69h-6.64v-11.72c0-3.19-0.14-5.31-0.43-6.36c-0.29-1.05-0.79-1.85-1.5-2.4
		c-0.71-0.55-1.59-0.82-2.64-0.82c-1.36,0-2.52,0.46-3.5,1.36c-0.97,0.91-1.65,2.17-2.03,3.77c-0.2,0.84-0.29,2.65-0.29,5.43v10.74
		h-6.72V220.48z"/>
	<path class="st1" d="M585.07,215.98l-5.1,4.5c-1.79-2.49-3.62-3.74-5.47-3.74c-0.9,0-1.64,0.24-2.22,0.73
		c-0.58,0.48-0.86,1.03-0.86,1.64c0,0.61,0.2,1.18,0.62,1.72c0.56,0.72,2.24,2.27,5.05,4.65c2.63,2.2,4.22,3.58,4.78,4.16
		c1.4,1.41,2.39,2.76,2.97,4.05c0.58,1.29,0.88,2.69,0.88,4.22c0,2.97-1.03,5.42-3.08,7.36c-2.05,1.94-4.73,2.9-8.03,2.9
		c-2.58,0-4.82-0.63-6.74-1.89c-1.91-1.26-3.55-3.25-4.91-5.95l5.79-3.49c1.74,3.2,3.75,4.8,6.01,4.8c1.18,0,2.18-0.34,2.98-1.03
		c0.8-0.69,1.21-1.48,1.21-2.39c0-0.82-0.3-1.64-0.91-2.46c-0.61-0.82-1.95-2.07-4.02-3.76c-3.94-3.21-6.49-5.7-7.64-7.44
		c-1.15-1.75-1.72-3.49-1.72-5.23c0-2.51,0.96-4.66,2.87-6.46c1.91-1.8,4.27-2.69,7.08-2.69c1.81,0,3.53,0.42,5.16,1.25
		C581.4,212.24,583.17,213.77,585.07,215.98z"/>
	<path class="st1" d="M588.57,220.48h6.86l6.95,16.79l7.67-16.79h6.88l-16.76,36.56h-6.94l5.5-11.79L588.57,220.48z"/>
	<path class="st1" d="M637.15,224.22l-4.16,4.16c-1.69-1.67-3.22-2.51-4.6-2.51c-0.75,0-1.35,0.16-1.77,0.48
		c-0.43,0.32-0.64,0.72-0.64,1.19c0,0.36,0.14,0.69,0.41,1c0.27,0.3,0.94,0.72,2,1.24l2.46,1.23c2.59,1.28,4.37,2.58,5.34,3.91
		c0.97,1.33,1.45,2.89,1.45,4.67c0,2.38-0.87,4.36-2.62,5.95c-1.75,1.59-4.09,2.39-7.02,2.39c-3.9,0-7.02-1.53-9.35-4.58l4.13-4.5
		c0.79,0.92,1.71,1.66,2.77,2.23c1.06,0.57,2,0.85,2.82,0.85c0.88,0,1.6-0.21,2.14-0.64c0.54-0.43,0.81-0.92,0.81-1.48
		c0-1.03-0.98-2.04-2.93-3.03l-2.26-1.13c-4.33-2.18-6.49-4.91-6.49-8.19c0-2.12,0.82-3.92,2.45-5.42c1.63-1.5,3.72-2.25,6.26-2.25
		c1.74,0,3.38,0.38,4.91,1.14C634.79,221.7,636.09,222.79,637.15,224.22z"/>
	<path class="st1" d="M643.75,210.62h6.72v9.87h3.99v5.78h-3.99v20.98h-6.72v-20.98h-3.44v-5.78h3.44V210.62z"/>
	<path class="st1" d="M684.85,235.81h-21.58c0.31,1.9,1.14,3.42,2.5,4.54c1.35,1.12,3.08,1.68,5.18,1.68c2.51,0,4.67-0.88,6.47-2.63
		l5.66,2.66c-1.41,2-3.1,3.48-5.07,4.44c-1.97,0.96-4.31,1.44-7.01,1.44c-4.2,0-7.62-1.32-10.26-3.97
		c-2.64-2.65-3.96-5.97-3.96-9.95c0-4.08,1.32-7.47,3.95-10.17c2.63-2.7,5.93-4.05,9.9-4.05c4.21,0,7.64,1.35,10.28,4.05
		c2.64,2.7,3.96,6.26,3.96,10.69L684.85,235.81z M678.14,230.52c-0.44-1.49-1.32-2.71-2.63-3.64c-1.31-0.94-2.82-1.4-4.55-1.4
		c-1.87,0-3.52,0.52-4.93,1.57c-0.89,0.66-1.71,1.81-2.46,3.47H678.14z"/>
	<path class="st1" d="M690.24,220.48h6.72v3.08c1.15-1.26,2.42-2.21,3.83-2.83c1.4-0.62,2.93-0.94,4.59-0.94
		c1.67,0,3.18,0.41,4.53,1.23c1.35,0.82,2.43,2.02,3.25,3.59c1.07-1.57,2.38-2.77,3.93-3.59c1.55-0.82,3.25-1.23,5.08-1.23
		c1.9,0,3.58,0.44,5.02,1.33c1.44,0.89,2.48,2.04,3.11,3.47c0.63,1.43,0.95,3.75,0.95,6.96v15.7h-6.77v-13.58
		c0-3.03-0.38-5.09-1.13-6.16c-0.75-1.07-1.89-1.61-3.4-1.61c-1.15,0-2.18,0.33-3.09,0.98c-0.91,0.66-1.59,1.56-2.03,2.72
		c-0.44,1.16-0.66,3.01-0.66,5.57v12.08h-6.76v-12.96c0-2.39-0.18-4.13-0.53-5.2c-0.35-1.07-0.88-1.87-1.59-2.4
		c-0.71-0.52-1.56-0.79-2.56-0.79c-1.12,0-2.13,0.33-3.05,1c-0.91,0.66-1.59,1.6-2.05,2.79c-0.45,1.2-0.68,3.08-0.68,5.66v11.91
		h-6.72V220.48z"/>
	<path class="st1" d="M754.03,224.22l-4.16,4.16c-1.69-1.67-3.22-2.51-4.6-2.51c-0.75,0-1.35,0.16-1.77,0.48
		c-0.43,0.32-0.64,0.72-0.64,1.19c0,0.36,0.14,0.69,0.41,1c0.27,0.3,0.94,0.72,2,1.24l2.46,1.23c2.59,1.28,4.37,2.58,5.34,3.91
		c0.97,1.33,1.45,2.89,1.45,4.67c0,2.38-0.87,4.36-2.62,5.95c-1.75,1.59-4.09,2.39-7.02,2.39c-3.9,0-7.02-1.53-9.35-4.58l4.13-4.5
		c0.79,0.92,1.71,1.66,2.77,2.23c1.06,0.57,2,0.85,2.82,0.85c0.88,0,1.6-0.21,2.14-0.64c0.54-0.43,0.81-0.92,0.81-1.48
		c0-1.03-0.98-2.04-2.93-3.03l-2.26-1.13c-4.33-2.18-6.49-4.91-6.49-8.19c0-2.12,0.82-3.92,2.45-5.42c1.63-1.5,3.72-2.25,6.26-2.25
		c1.74,0,3.38,0.38,4.91,1.14S752.96,222.79,754.03,224.22z"/>
</g>
</svg>
